HIERARCHY
ROOT mixamorig:Hips
{
	OFFSET -0.000008 104.274872 1.554316
	CHANNELS 6 Xposition Yposition Zposition Xrotation Yrotation Zrotation
	JOINT mixamorig:Spine
	{
		OFFSET -0.000005 10.181595 0.131519
		CHANNELS 6 Xposition Yposition Zposition Xrotation Yrotation Zrotation
		JOINT mixamorig:Spine1
		{
			OFFSET -0.000000 9.893959 -1.470707
			CHANNELS 6 Xposition Yposition Zposition Xrotation Yrotation Zrotation
			JOINT mixamorig:Spine2
			{
				OFFSET -0.000000 9.220757 -1.370641
				CHANNELS 6 Xposition Yposition Zposition Xrotation Yrotation Zrotation
				JOINT mixamorig:Neck
				{
					OFFSET 0.000001 16.740417 -2.049036
					CHANNELS 6 Xposition Yposition Zposition Xrotation Yrotation Zrotation
					JOINT mixamorig:Head
					{
						OFFSET 0.000000 9.617874 1.685006
						CHANNELS 6 Xposition Yposition Zposition Xrotation Yrotation Zrotation
						JOINT mixamorig:HeadTop_End
						{
							OFFSET 0.000002 22.037354 7.501101
							CHANNELS 6 Xposition Yposition Zposition Xrotation Yrotation Zrotation
							End Site
							{
								OFFSET 0.000168 2310.654297 -282.823242
							}
						}
					}
				}
				JOINT mixamorig:RightShoulder
				{
					OFFSET -4.569970 11.014908 -2.160885
					CHANNELS 6 Xposition Yposition Zposition Xrotation Yrotation Zrotation
					JOINT mixamorig:RightArm
					{
						OFFSET -10.592851 -0.524811 -2.232101
						CHANNELS 6 Xposition Yposition Zposition Xrotation Yrotation Zrotation
						JOINT mixamorig:RightForeArm
						{
							OFFSET -27.841511 0.000031 -0.000004
							CHANNELS 6 Xposition Yposition Zposition Xrotation Yrotation Zrotation
							JOINT mixamorig:RightHand
							{
								OFFSET -28.328831 -0.000015 0.000015
								CHANNELS 6 Xposition Yposition Zposition Xrotation Yrotation Zrotation
								JOINT mixamorig:RightHandThumb1
								{
									OFFSET -2.464806 -1.573990 2.681852
									CHANNELS 6 Xposition Yposition Zposition Xrotation Yrotation Zrotation
									JOINT mixamorig:RightHandThumb2
									{
										OFFSET -3.215179 -1.872803 1.924282
										CHANNELS 6 Xposition Yposition Zposition Xrotation Yrotation Zrotation
										JOINT mixamorig:RightHandThumb3
										{
											OFFSET -2.654831 -1.527969 1.512609
											CHANNELS 6 Xposition Yposition Zposition Xrotation Yrotation Zrotation
											JOINT mixamorig:RightHandThumb4
											{
												OFFSET -2.018814 -1.152008 1.108052
												CHANNELS 6 Xposition Yposition Zposition Xrotation Yrotation Zrotation
												End Site
												{
													OFFSET -188.809540 -114.533607 132.431396
												}
											}
										}
									}
								}
								JOINT mixamorig:RightHandIndex1
								{
									OFFSET -9.108284 -0.517868 2.259835
									CHANNELS 6 Xposition Yposition Zposition Xrotation Yrotation Zrotation
									JOINT mixamorig:RightHandIndex2
									{
										OFFSET -3.699989 0.000000 0.001215
										CHANNELS 6 Xposition Yposition Zposition Xrotation Yrotation Zrotation
										JOINT mixamorig:RightHandIndex3
										{
											OFFSET -2.850006 0.000031 -0.000522
											CHANNELS 6 Xposition Yposition Zposition Xrotation Yrotation Zrotation
											JOINT mixamorig:RightHandIndex4
											{
												OFFSET -2.772186 -0.000015 -0.000020
												CHANNELS 6 Xposition Yposition Zposition Xrotation Yrotation Zrotation
												End Site
												{
													OFFSET -277.218445 0.000000 -0.050231
												}
											}
										}
									}
								}
								JOINT mixamorig:RightHandMiddle1
								{
									OFFSET -9.532516 -0.000031 -0.000023
									CHANNELS 6 Xposition Yposition Zposition Xrotation Yrotation Zrotation
									JOINT mixamorig:RightHandMiddle2
									{
										OFFSET -3.700005 -0.000015 0.003713
										CHANNELS 6 Xposition Yposition Zposition Xrotation Yrotation Zrotation
										JOINT mixamorig:RightHandMiddle3
										{
											OFFSET -2.949974 0.000015 -0.002054
											CHANNELS 6 Xposition Yposition Zposition Xrotation Yrotation Zrotation
											JOINT mixamorig:RightHandMiddle4
											{
												OFFSET -2.946640 0.000000 -0.000156
												CHANNELS 6 Xposition Yposition Zposition Xrotation Yrotation Zrotation
												End Site
												{
													OFFSET -294.664337 0.000000 -0.113670
												}
											}
										}
									}
								}
								JOINT mixamorig:RightHandRing1
								{
									OFFSET -9.103600 -0.043076 -1.865134
									CHANNELS 6 Xposition Yposition Zposition Xrotation Yrotation Zrotation
									JOINT mixamorig:RightHandRing2
									{
										OFFSET -3.379288 0.000000 -0.001055
										CHANNELS 6 Xposition Yposition Zposition Xrotation Yrotation Zrotation
										JOINT mixamorig:RightHandRing3
										{
											OFFSET -2.889687 -0.000015 0.000379
											CHANNELS 6 Xposition Yposition Zposition Xrotation Yrotation Zrotation
											JOINT mixamorig:RightHandRing4
											{
												OFFSET -2.638809 -0.000015 0.000941
												CHANNELS 6 Xposition Yposition Zposition Xrotation Yrotation Zrotation
												End Site
												{
													OFFSET -263.880371 0.000000 0.516020
												}
											}
										}
									}
								}
								JOINT mixamorig:RightHandPinky1
								{
									OFFSET -8.076683 -0.486710 -3.806280
									CHANNELS 6 Xposition Yposition Zposition Xrotation Yrotation Zrotation
									JOINT mixamorig:RightHandPinky2
									{
										OFFSET -3.600014 -0.000015 -0.003747
										CHANNELS 6 Xposition Yposition Zposition Xrotation Yrotation Zrotation
										JOINT mixamorig:RightHandPinky3
										{
											OFFSET -2.099983 0.000000 -0.005739
											CHANNELS 6 Xposition Yposition Zposition Xrotation Yrotation Zrotation
											JOINT mixamorig:RightHandPinky4
											{
												OFFSET -2.115768 -0.000031 -0.003680
												CHANNELS 6 Xposition Yposition Zposition Xrotation Yrotation Zrotation
												End Site
												{
													OFFSET -211.577087 0.000000 -0.350686
												}
											}
										}
									}
								}
							}
						}
					}
				}
				JOINT mixamorig:LeftShoulder
				{
					OFFSET 4.570447 11.014725 -2.160855
					CHANNELS 6 Xposition Yposition Zposition Xrotation Yrotation Zrotation
					JOINT mixamorig:LeftArm
					{
						OFFSET 10.592371 -0.524597 -2.232119
						CHANNELS 6 Xposition Yposition Zposition Xrotation Yrotation Zrotation
						JOINT mixamorig:LeftForeArm
						{
							OFFSET 27.841532 -0.000031 0.000026
							CHANNELS 6 Xposition Yposition Zposition Xrotation Yrotation Zrotation
							JOINT mixamorig:LeftHand
							{
								OFFSET 28.328846 -0.000061 0.000022
								CHANNELS 6 Xposition Yposition Zposition Xrotation Yrotation Zrotation
								JOINT mixamorig:LeftHandThumb1
								{
									OFFSET 2.466141 -1.576172 2.681732
									CHANNELS 6 Xposition Yposition Zposition Xrotation Yrotation Zrotation
									JOINT mixamorig:LeftHandThumb2
									{
										OFFSET 3.217812 -1.872070 1.916482
										CHANNELS 6 Xposition Yposition Zposition Xrotation Yrotation Zrotation
										JOINT mixamorig:LeftHandThumb3
										{
											OFFSET 2.656029 -1.528778 1.514513
											CHANNELS 6 Xposition Yposition Zposition Xrotation Yrotation Zrotation
											JOINT mixamorig:LeftHandThumb4
											{
												OFFSET 2.020889 -1.154053 1.115139
												CHANNELS 6 Xposition Yposition Zposition Xrotation Yrotation Zrotation
												End Site
												{
													OFFSET 190.885437 -115.081749 130.048782
												}
											}
										}
									}
								}
								JOINT mixamorig:LeftHandIndex1
								{
									OFFSET 9.109314 -0.518021 2.259871
									CHANNELS 6 Xposition Yposition Zposition Xrotation Yrotation Zrotation
									JOINT mixamorig:LeftHandIndex2
									{
										OFFSET 3.699989 0.000000 -0.000322
										CHANNELS 6 Xposition Yposition Zposition Xrotation Yrotation Zrotation
										JOINT mixamorig:LeftHandIndex3
										{
											OFFSET 2.850006 0.000000 0.000352
											CHANNELS 6 Xposition Yposition Zposition Xrotation Yrotation Zrotation
											JOINT mixamorig:LeftHandIndex4
											{
												OFFSET 2.774864 -0.000031 -0.000027
												CHANNELS 6 Xposition Yposition Zposition Xrotation Yrotation Zrotation
												End Site
												{
													OFFSET 277.486267 0.000000 -0.009857
												}
											}
										}
									}
								}
								JOINT mixamorig:LeftHandMiddle1
								{
									OFFSET 9.533394 0.000061 0.000044
									CHANNELS 6 Xposition Yposition Zposition Xrotation Yrotation Zrotation
									JOINT mixamorig:LeftHandMiddle2
									{
										OFFSET 3.699989 -0.000015 -0.000231
										CHANNELS 6 Xposition Yposition Zposition Xrotation Yrotation Zrotation
										JOINT mixamorig:LeftHandMiddle3
										{
											OFFSET 2.949997 -0.000015 -0.000059
											CHANNELS 6 Xposition Yposition Zposition Xrotation Yrotation Zrotation
											JOINT mixamorig:LeftHandMiddle4
											{
												OFFSET 2.952896 0.000031 0.000063
												CHANNELS 6 Xposition Yposition Zposition Xrotation Yrotation Zrotation
												End Site
												{
													OFFSET 295.289337 0.000000 0.022810
												}
											}
										}
									}
								}
								JOINT mixamorig:LeftHandRing1
								{
									OFFSET 9.104523 -0.042999 -1.865074
									CHANNELS 6 Xposition Yposition Zposition Xrotation Yrotation Zrotation
									JOINT mixamorig:LeftHandRing2
									{
										OFFSET 3.150009 -0.000031 0.000043
										CHANNELS 6 Xposition Yposition Zposition Xrotation Yrotation Zrotation
										JOINT mixamorig:LeftHandRing3
										{
											OFFSET 2.949982 -0.000015 0.000040
											CHANNELS 6 Xposition Yposition Zposition Xrotation Yrotation Zrotation
											JOINT mixamorig:LeftHandRing4
											{
												OFFSET 2.644348 0.000000 0.000057
												CHANNELS 6 Xposition Yposition Zposition Xrotation Yrotation Zrotation
												End Site
												{
													OFFSET 264.434631 0.000000 0.012105
												}
											}
										}
									}
								}
								JOINT mixamorig:LeftHandPinky1
								{
									OFFSET 8.077789 -0.486847 -3.806259
									CHANNELS 6 Xposition Yposition Zposition Xrotation Yrotation Zrotation
									JOINT mixamorig:LeftHandPinky2
									{
										OFFSET 3.599953 0.000031 0.014727
										CHANNELS 6 Xposition Yposition Zposition Xrotation Yrotation Zrotation
										JOINT mixamorig:LeftHandPinky3
										{
											OFFSET 2.100021 0.000015 0.007705
											CHANNELS 6 Xposition Yposition Zposition Xrotation Yrotation Zrotation
											JOINT mixamorig:LeftHandPinky4
											{
												OFFSET 2.125504 0.000031 0.007517
												CHANNELS 6 Xposition Yposition Zposition Xrotation Yrotation Zrotation
												End Site
												{
													OFFSET 212.550781 0.000000 0.625752
												}
											}
										}
									}
								}
							}
						}
					}
				}
			}
		}
	}
	JOINT mixamorig:RightUpLeg
	{
		OFFSET -8.207787 -6.751648 -1.599560
		CHANNELS 6 Xposition Yposition Zposition Xrotation Yrotation Zrotation
		JOINT mixamorig:RightLeg
		{
			OFFSET -0.000002 -44.370117 0.345942
			CHANNELS 6 Xposition Yposition Zposition Xrotation Yrotation Zrotation
			JOINT mixamorig:RightFoot
			{
				OFFSET 0.000003 -44.423679 -3.043532
				CHANNELS 6 Xposition Yposition Zposition Xrotation Yrotation Zrotation
				JOINT mixamorig:RightToeBase
				{
					OFFSET -0.000002 -8.728671 10.710558
					CHANNELS 6 Xposition Yposition Zposition Xrotation Yrotation Zrotation
					JOINT mixamorig:RightToe_End
					{
						OFFSET -0.000001 -0.000679 9.278119
						CHANNELS 6 Xposition Yposition Zposition Xrotation Yrotation Zrotation
						End Site
						{
							OFFSET 0.000000 -0.067690 927.812134
						}
					}
				}
			}
		}
	}
	JOINT mixamorig:LeftUpLeg
	{
		OFFSET 8.207793 -6.751686 -1.599556
		CHANNELS 6 Xposition Yposition Zposition Xrotation Yrotation Zrotation
		JOINT mixamorig:LeftLeg
		{
			OFFSET -0.000004 -44.370014 0.346954
			CHANNELS 6 Xposition Yposition Zposition Xrotation Yrotation Zrotation
			JOINT mixamorig:LeftFoot
			{
				OFFSET -0.000001 -44.423672 -3.044401
				CHANNELS 6 Xposition Yposition Zposition Xrotation Yrotation Zrotation
				JOINT mixamorig:LeftToeBase
				{
					OFFSET -0.000002 -8.728669 10.710558
					CHANNELS 6 Xposition Yposition Zposition Xrotation Yrotation Zrotation
					JOINT mixamorig:LeftToe_End
					{
						OFFSET -0.000003 -0.000679 9.278133
						CHANNELS 6 Xposition Yposition Zposition Xrotation Yrotation Zrotation
						End Site
						{
							OFFSET 0.000000 -0.068021 927.813477
						}
					}
				}
			}
		}
	}
}
MOTION
Frames: 3
Frame Time: 0.033333
0.000006 104.270477 1.554256 0.000010 0.000003 -0.000113 -0.000005 10.181587 0.131522 0.000001 -0.000003 0.000084 -0.000000 9.893967 -1.470711 0.000001 0.000000 -0.000000 -0.000000 9.220802 -1.370642 0.000000 -0.000000 -0.000000 0.000001 16.740433 -2.049030 0.000000 -0.000000 -0.000000 0.000000 9.617859 1.685014 0.000000 0.000000 0.000000 0.000002 22.037384 7.501101 0.000000 -0.000000 0.000000 -4.569968 11.014880 -2.160881 0.000008 0.000001 -0.000038 -10.592882 -0.524729 -2.231949 73.753537 21.458967 -16.180718 -27.841532 0.000010 0.000542 -52.946028 119.555426 81.052468 -28.328840 0.000008 0.000024 -0.000320 -0.000045 0.000005 -2.464413 -1.573813 2.682336 -44.681708 -156.061585 -3.163429 -3.215275 -1.872520 1.924630 152.219877 32.908248 14.823940 -2.654963 -1.527882 1.513082 144.420648 27.091571 -41.719718 -2.018827 -1.151997 1.108062 -0.000005 -0.000003 0.000002 -9.108383 -0.517555 2.260110 94.440151 16.430005 -17.785355 -3.700064 0.000322 0.001486 91.243083 14.137120 -14.419716 -2.850101 0.000356 -0.000279 91.061564 11.435081 -11.646526 -2.772196 0.000003 -0.000023 -0.000001 0.000001 0.000001 -9.532589 0.000278 0.000240 92.332778 15.031984 -15.795866 -3.700079 0.000333 0.003975 93.146657 11.555686 -12.104309 -2.950060 0.000347 -0.001804 96.411788 10.961268 -12.244807 -2.946629 0.000003 -0.000157 -0.000002 0.000000 -0.000001 -9.103707 -0.042745 -1.864868 93.616950 16.059494 -17.044713 -3.379299 0.000332 -0.000815 93.239349 6.323541 -6.708311 -2.889737 0.000381 0.000647 99.493276 4.869828 -5.802667 -2.638829 -0.000019 0.000942 -0.000003 0.000000 0.000002 -8.076768 -0.486384 -3.805984 93.376568 17.440268 -18.322011 -3.600020 0.000278 -0.003500 95.257008 4.507930 -4.572988 -2.100008 0.000342 -0.005458 97.038130 1.511258 -1.476407 -2.115790 -0.000026 -0.003674 -0.000000 -0.000000 -0.000006 4.570446 11.014691 -2.160851 -0.000018 0.000010 -0.000021 10.592524 -0.524544 -2.232396 66.948182 -64.736137 45.478794 27.841722 -0.000086 -0.000086 64.312344 -107.541479 81.262107 28.328823 -0.000027 0.000031 0.000020 -0.000089 0.000000 2.466153 -1.576190 2.681835 142.874484 162.147639 -171.451149 3.217839 -1.871986 1.916532 293.865966 28.684821 382.142390 2.656033 -1.528775 1.514594 -108.427750 44.235833 53.159939 2.020910 -1.154086 1.115143 -0.000001 -0.000000 0.000001 9.109271 -0.517720 2.260098 52.686157 -171.240424 162.430464 3.699925 0.000299 -0.000105 47.032269 -169.565730 156.275616 2.849955 0.000347 0.000572 46.753642 -171.844691 161.271900 2.774889 -0.000031 -0.000035 -0.000001 0.000000 -0.000001 9.533381 0.000342 0.000265 -122.099931 -6.030349 -10.867529 3.699978 0.000304 -0.000001 -123.243824 -6.658156 -12.288297 2.949985 0.000288 0.000165 -123.413349 -5.983839 -11.095598 2.952870 -0.000031 0.000063 -0.000000 0.000000 0.000001 9.104519 -0.042746 -1.864863 -120.571362 -3.726748 -6.527699 3.149996 0.000302 0.000264 -122.928556 -1.951260 -3.590308 2.949963 0.000270 0.000252 -120.776883 -2.960231 -5.208509 2.644324 0.000030 0.000056 0.000001 0.000001 0.000001 8.077776 -0.486593 -3.806014 -118.422025 -1.505542 -3.286594 3.599996 0.000285 0.014942 -122.054319 7.905150 13.361984 2.100049 0.000254 0.007918 -122.701890 8.265279 14.221968 2.125501 0.000001 0.007524 -0.000002 -0.000001 -0.000002 -8.207786 -6.751667 -1.599560 -0.077001 -0.000003 0.000080 -0.000002 -44.370110 0.345938 0.153719 -0.000000 -0.000000 0.000000 -44.423679 -3.043532 -0.076700 0.000000 -0.000002 -0.000006 -8.728667 10.710559 -0.000009 -0.000000 -0.000000 -0.000001 -0.000679 9.278123 0.000000 -0.000000 -0.000000 8.207792 -6.751710 -1.599556 -0.074518 -0.000003 0.000081 -0.000002 -44.370014 0.346960 0.148822 0.000002 0.000000 -0.000001 -44.423664 -3.044403 -0.074314 0.000000 -0.000002 -0.000004 -8.728671 10.710558 0.000007 -0.000000 -0.000000 0.000000 -0.000680 9.278137 -0.000000 0.000000 -0.000001 
0.000006 104.270477 1.554256 0.000010 0.000003 -0.000113 -0.000005 10.181587 0.131522 0.000001 -0.000003 0.000084 -0.000000 9.893967 -1.470711 0.000001 0.000000 -0.000000 -0.000000 9.220802 -1.370642 0.000000 -0.000000 -0.000000 0.000001 16.740433 -2.049030 0.000000 -0.000000 -0.000000 0.000000 9.617859 1.685014 0.000000 0.000000 0.000000 0.000002 22.037384 7.501101 0.000000 -0.000000 0.000000 -4.569968 11.014880 -2.160881 0.000008 0.000001 -0.000038 -10.592875 -0.524731 -2.231941 73.793500 21.606680 -16.304917 -27.841526 0.000015 0.000559 -52.761104 118.357739 79.474763 -28.328823 0.000007 0.000028 -0.000325 -0.000043 0.000005 -2.464376 -1.573824 2.682327 -44.699729 -155.661869 -3.272990 -3.215244 -1.872545 1.924632 151.606840 33.057081 16.765669 -2.654954 -1.527855 1.513071 144.125802 27.203327 -41.141798 -2.018834 -1.152027 1.108062 -0.000005 -0.000001 0.000002 -9.108387 -0.517555 2.260108 94.485675 15.917515 -17.246660 -3.700062 0.000332 0.001485 90.376325 13.331507 -13.394876 -2.850086 0.000365 -0.000274 90.178475 10.842196 -10.874890 -2.772184 -0.000000 -0.000010 -0.000002 0.000001 -0.000001 -9.532584 0.000274 0.000241 92.655204 14.252580 -15.067727 -3.700057 0.000335 0.003969 92.840583 10.682517 -11.124537 -2.950056 0.000344 -0.001797 96.152022 10.475852 -11.650130 -2.946631 0.000030 -0.000158 0.000004 -0.000000 -0.000001 -9.103690 -0.042739 -1.864864 93.622667 15.474507 -16.425046 -3.379303 0.000333 -0.000821 93.043555 5.932760 -6.273367 -2.889758 0.000366 0.000658 98.979113 4.843817 -5.719791 -2.638817 -0.000002 0.000946 -0.000003 0.000001 0.000000 -8.076746 -0.486376 -3.806003 93.785334 17.124041 -18.114859 -3.600010 0.000300 -0.003497 94.951978 4.362794 -4.391205 -2.099999 0.000338 -0.005479 96.105399 1.554259 -1.500091 -2.115768 -0.000055 -0.003677 -0.000001 -0.000000 -0.000003 4.570446 11.014691 -2.160851 -0.000018 0.000010 -0.000021 10.592520 -0.524534 -2.232392 67.128779 -64.362102 45.323506 27.841728 -0.000075 -0.000097 65.227002 -108.240979 82.991750 28.328829 -0.000011 0.000027 0.000023 -0.000089 0.000001 2.466147 -1.576211 2.681809 145.937770 161.799054 -172.719160 3.217834 -1.872000 1.916550 297.650273 25.611857 379.916295 2.656035 -1.528777 1.514613 -110.585079 44.172862 54.717223 2.020891 -1.154065 1.115160 0.000002 0.000005 0.000002 9.109265 -0.517704 2.260079 46.061057 -172.386120 162.225968 3.699887 0.000330 -0.000144 32.468667 -168.800025 142.752019 2.849883 0.000372 0.000509 26.355922 -171.241886 143.781233 2.774879 -0.000030 -0.000025 -0.000001 -0.000000 0.000000 9.533393 0.000339 0.000268 -129.022820 -3.642798 -7.618764 3.699943 0.000355 -0.000041 -144.193134 -5.309500 -16.329700 2.949931 0.000356 0.000104 -152.375442 -6.598941 -26.401174 2.952866 -0.000030 0.000052 -0.000000 0.000000 -0.000000 9.104529 -0.042756 -1.864855 -124.917507 -0.708468 -1.361517 3.150023 0.000327 0.000204 -139.965657 2.438933 6.683607 2.949967 0.000362 0.000210 -145.667130 -0.851995 -2.762239 2.644331 0.000045 0.000057 0.000000 0.000000 0.000001 8.077798 -0.486625 -3.806017 -118.417121 1.882060 2.345076 3.600021 0.000280 0.014923 -127.728731 11.796039 22.754774 2.100077 0.000242 0.007900 -133.611614 10.619710 23.356177 2.125508 -0.000019 0.007528 0.000003 0.000000 0.000001 -8.207786 -6.751667 -1.599560 -0.077001 -0.000003 0.000080 -0.000002 -44.370110 0.345938 0.153719 -0.000000 -0.000000 0.000000 -44.423679 -3.043532 -0.076700 0.000000 -0.000002 -0.000006 -8.728667 10.710559 -0.000009 -0.000000 -0.000000 -0.000001 -0.000679 9.278123 0.000000 -0.000000 -0.000000 8.207792 -6.751710 -1.599556 -0.074518 -0.000003 0.000081 -0.000002 -44.370014 0.346960 0.148822 0.000002 0.000000 -0.000001 -44.423664 -3.044403 -0.074314 0.000000 -0.000002 -0.000004 -8.728671 10.710558 0.000007 -0.000000 -0.000000 0.000000 -0.000680 9.278137 -0.000000 0.000000 -0.000001 
0.000006 104.270477 1.554256 0.000010 0.000003 -0.000113 -0.000005 10.181587 0.131522 0.000001 -0.000003 0.000084 -0.000000 9.893967 -1.470711 0.000001 0.000000 -0.000000 -0.000000 9.220802 -1.370642 0.000000 -0.000000 -0.000000 0.000001 16.740433 -2.049030 0.000000 -0.000000 -0.000000 0.000000 9.617859 1.685014 0.000000 0.000000 0.000000 0.000002 22.037384 7.501101 0.000000 -0.000000 0.000000 -4.569968 11.014880 -2.160881 0.000008 0.000001 -0.000038 -10.592880 -0.524727 -2.231954 73.815111 21.717918 -16.396088 -27.841528 -0.000013 0.000557 -52.439382 116.537835 77.070318 -28.328831 0.000019 0.000024 -0.000317 -0.000046 0.000008 -2.464379 -1.573826 2.682313 -44.786869 -155.471648 -3.499145 -3.215268 -1.872534 1.924621 150.865601 33.012674 17.657081 -2.654938 -1.527890 1.513081 144.068825 27.301644 -39.962576 -2.018822 -1.152006 1.108058 -0.000004 0.000000 -0.000000 -9.108372 -0.517559 2.260109 94.539121 15.905431 -17.249510 -3.700086 0.000312 0.001479 90.222031 13.571898 -13.600402 -2.850093 0.000359 -0.000284 90.133854 11.181093 -11.206149 -2.772171 -0.000017 -0.000015 -0.000003 0.000001 0.000000 -9.532573 0.000268 0.000239 92.570162 14.342663 -15.139809 -3.700070 0.000334 0.003962 92.816103 11.227289 -11.690872 -2.950068 0.000338 -0.001796 96.686054 10.834608 -12.161463 -2.946637 0.000000 -0.000155 0.000003 -0.000000 -0.000001 -9.103689 -0.042747 -1.864864 93.665669 15.828067 -16.813055 -3.379310 0.000335 -0.000823 92.922709 6.336208 -6.684696 -2.889734 0.000365 0.000661 99.507933 5.019487 -5.980971 -2.638812 -0.000043 0.000943 0.000001 -0.000001 0.000001 -8.076736 -0.486386 -3.805992 94.047019 17.652735 -18.761302 -3.600020 0.000298 -0.003501 95.271604 4.520818 -4.588212 -2.100007 0.000342 -0.005457 96.688083 1.487781 -1.441051 -2.115775 -0.000043 -0.003680 0.000001 -0.000000 -0.000010 4.570446 11.014691 -2.160851 -0.000018 0.000010 -0.000021 10.592522 -0.524528 -2.232398 67.700630 -62.295376 44.131690 27.841719 -0.000091 -0.000085 66.343137 -108.042056 83.999722 28.328840 -0.000029 0.000031 0.000022 -0.000089 -0.000000 2.466138 -1.576202 2.681821 145.245749 163.982064 -172.199314 3.217849 -1.871986 1.916556 297.684123 20.204348 379.249478 2.656048 -1.528773 1.514608 -106.357465 38.936238 49.169944 2.020882 -1.154074 1.115140 -0.000001 0.000002 0.000009 9.109239 -0.517729 2.260064 46.743062 -169.444781 155.885189 3.699842 0.000312 -0.000145 31.980271 -165.590382 132.370063 2.849855 0.000360 0.000515 24.401314 -168.820748 131.296071 2.774879 -0.000015 -0.000028 -0.000004 0.000000 0.000000 9.533358 0.000339 0.000257 -128.685518 -5.691493 -11.803536 3.699931 0.000335 -0.000027 -143.230938 -6.771098 -20.180193 2.949888 0.000332 0.000117 -152.676830 -8.349264 -33.435596 2.952866 -0.000031 0.000071 -0.000001 0.000000 -0.000000 9.104521 -0.042720 -1.864857 -126.050786 -2.718476 -5.341226 3.150019 0.000304 0.000230 -134.928584 0.736790 1.771761 2.949962 0.000333 0.000251 -139.403095 -2.378537 -6.428457 2.644319 0.000045 0.000066 -0.000001 0.000000 -0.000000 8.077778 -0.486589 -3.806040 -122.163602 -0.456813 -1.664191 3.600009 0.000270 0.014950 -124.015745 7.431312 13.035232 2.100034 0.000289 0.007907 -128.021200 5.442623 10.222637 2.125497 -0.000018 0.007510 0.000001 0.000001 -0.000000 -8.207786 -6.751667 -1.599560 -0.077001 -0.000003 0.000080 -0.000002 -44.370110 0.345938 0.153719 -0.000000 -0.000000 0.000000 -44.423679 -3.043532 -0.076700 0.000000 -0.000002 -0.000006 -8.728667 10.710559 -0.000009 -0.000000 -0.000000 -0.000001 -0.000679 9.278123 0.000000 -0.000000 -0.000000 8.207792 -6.751710 -1.599556 -0.074518 -0.000003 0.000081 -0.000002 -44.370014 0.346960 0.148822 0.000002 0.000000 -0.000001 -44.423664 -3.044403 -0.074314 0.000000 -0.000002 -0.000004 -8.728671 10.710558 0.000007 -0.000000 -0.000000 0.000000 -0.000680 9.278137 -0.000000 0.000000 -0.000001 
